<svg width="375" height="211" viewBox="0 0 375 211" fill="none" xmlns="http://www.w3.org/2000/svg">
<g clip-path="url(#clip0_30_907)">
<rect width="375" height="211" fill="#539CFF"/>
<path d="M31.0132 368L-75 236.977L45.9934 282.95L-62.3245 127.792L120.894 179.511L-75 -3.23076L108.219 49.638L-75 -140H-11.6225L184.272 -3.23076L108.219 -140L286.828 -22.7692L221.146 -140H334.073L447 -3.23076L367.49 -22.7692L447 127.792L271.848 49.638L447 264.561L309.874 202.498L447 368H367.49L184.272 202.498L286.828 368L108.219 282.95L184.272 368H31.0132Z" fill="#1570FF"/>
<path d="M102.565 102.713C85.6904 107.577 68.875 112.467 52.0199 117.304C52 113.834 52 110.363 52 106.867C54.3454 106.157 56.7107 105.394 59.076 104.632C59.076 103.633 59.0958 102.608 59.076 101.582C56.7107 102.345 54.3653 103.16 52.0199 103.922C52 100.399 52 96.9286 52 93.4319C68.8352 86.9906 85.7102 80.4967 102.565 73.9502C102.565 78.2094 102.565 82.416 102.565 86.6488C100.399 87.4113 98.2125 88.1474 96.0459 88.9099C96.0658 90.093 96.0658 91.2498 96.0857 92.4329C98.2125 91.6967 100.399 90.9869 102.585 90.277C102.565 94.431 102.545 98.6113 102.565 102.713ZM70.7633 95.9033C70.5645 96.8498 70.3458 97.8488 70.1073 98.7953C74.7186 99.4263 80.1449 98.4009 84.5574 96.9549C84.5574 96.0347 84.5972 95.062 84.617 94.1681C80.1449 95.6667 75.2752 96.2451 70.7633 95.9033ZM102.545 118.408C85.6904 122.431 68.875 126.454 52.0199 130.476C52 126.664 52 122.825 52 119.013C68.8352 114.281 85.7301 109.548 102.585 104.79C102.585 109.338 102.565 113.913 102.545 118.408ZM72.413 159.475C58.1418 161.447 52.0199 157.871 52 148.433C52 147.46 52 146.461 52.0199 145.462C58.7778 144.121 62.614 142.833 69.2527 139.809C69.2725 139.047 69.2526 138.258 69.2725 137.469C62.5941 140.519 58.7977 141.86 52 143.227C52 139.652 52 136.023 52 132.422C68.8352 128.504 85.6904 124.561 102.565 120.696C102.585 124.955 102.565 129.162 102.565 133.342C97.5168 136.996 91.1762 139.441 85.273 140.519C85.273 141.308 85.2332 142.149 85.2332 142.964C91.1762 141.939 97.4969 139.52 102.585 135.892C102.545 140.677 102.565 145.462 102.565 150.273C94.9527 154.532 85.2133 157.766 72.413 159.475ZM106.839 136.812C106.839 125.796 106.839 114.701 106.859 103.528C109.939 102.66 113.199 100.767 115.982 98.6639C115.942 97.6385 115.962 96.5606 115.962 95.5352C113.239 97.7174 109.939 99.6366 106.859 100.531C106.819 91.1972 106.819 81.785 106.859 72.2676C114.432 69.4019 122.004 66.5624 129.538 63.7493C129.557 80.7333 129.557 97.3756 129.557 113.729C126.576 117.173 123.952 118.382 120.494 119.039C120.494 120.091 120.494 121.116 120.494 122.115C123.475 121.563 126.954 120.301 130.949 116.331C130.929 98.9793 130.929 81.2854 130.929 63.2498C135.063 61.7512 139.237 60.3052 143.371 58.8592C143.371 70.3221 143.411 81.7324 143.411 92.9587C143.928 92.8272 144.425 92.7221 144.962 92.5643C144.962 81.3117 144.962 69.9014 144.962 58.307C149.096 56.8873 153.23 55.5728 157.404 54.2582C157.404 86.8854 157.384 118.04 157.404 147.67C153.25 148.039 149.096 148.433 144.962 148.827C144.962 138.363 144.962 127.794 144.962 117.041C144.425 117.146 143.928 117.225 143.411 117.304C143.411 127.978 143.411 138.574 143.411 149.011C139.257 149.458 135.103 149.931 130.949 150.405C130.909 149.064 130.929 147.697 130.929 146.356C126.636 150.194 120.991 151.483 117.214 151.956C109.721 152.929 106.839 147.46 106.839 136.812ZM161.717 129.74C161.717 105.289 161.717 79.6817 161.697 52.9962C166.647 51.7343 171.596 50.6038 176.565 49.6047C176.565 57.5709 176.565 65.4319 176.565 73.1352C177.221 73.0563 177.877 73.03 178.513 72.9512C178.493 65.2216 178.513 57.3606 178.513 49.3155C183.482 49 188.431 48.9211 193.38 49.0789C193.38 60.2 193.38 71.1108 193.38 81.7324C194.116 81.7587 194.871 81.8113 195.646 81.8639C195.626 71.2948 195.606 60.4103 195.626 49.3418C201.192 50.3671 206.717 51.5502 212.263 52.9962C212.243 86.0704 212.263 117.488 212.283 147.276C206.737 146.882 201.192 146.566 195.626 146.33C195.646 136.234 195.646 125.954 195.646 115.49C194.871 115.464 194.096 115.438 193.38 115.438C193.38 125.928 193.38 136.181 193.38 146.277C186.125 146.251 178.851 146.356 171.616 146.619C165.057 147.039 161.717 141.466 161.717 129.74ZM171.536 102.66C171.178 103.738 170.841 104.79 170.463 105.841C174.418 109.023 179.884 110.416 184.356 110.311C184.356 109.154 184.356 108.023 184.356 106.893C179.884 107.024 175.074 105.184 171.536 102.66ZM253.129 151.614C248.955 151.115 244.8 150.589 240.666 150.115C240.646 121.8 240.646 92.5643 240.666 62.3822C244.8 63.8808 248.955 65.4056 253.129 66.9831C253.129 77.6047 253.129 88.1211 253.129 98.4798C253.645 98.6376 254.142 98.769 254.679 98.9268C254.679 88.5944 254.679 78.1305 254.659 67.5352C258.813 69.0864 262.947 70.6639 267.121 72.2676C267.141 99.8732 267.141 126.9 267.121 153.376C262.967 152.823 258.793 152.298 254.659 151.798C254.679 141.834 254.679 131.791 254.659 121.642C254.142 121.563 253.645 121.432 253.129 121.353C253.109 131.528 253.129 141.597 253.129 151.614ZM216.576 130.161C216.576 105.868 216.576 80.5493 216.576 54.2319C224.129 56.7033 231.702 59.2535 239.275 61.9089C239.275 92.1962 239.295 121.537 239.275 149.958C235.001 149.485 230.728 149.011 226.474 148.564C219.895 147.96 216.556 141.808 216.576 130.161ZM222.837 98.5324C222.459 99.4789 222.121 100.425 221.764 101.398C225.103 104.895 229.635 106.683 233.272 107.392C233.272 106.288 233.272 105.184 233.252 104.106C229.635 103.396 225.739 101.346 222.837 98.5324ZM302.004 110.258C299.778 109.575 297.552 108.917 295.346 108.26C295.306 112.677 295.306 117.094 295.346 121.485C295.306 130.134 298.447 134.867 302.024 136.944C302.024 143.99 302.024 151.062 302.024 158.108C295.346 157.188 288.707 154.532 283.36 145.068C282.923 145.541 282.506 146.014 282.088 146.514C282.923 148.117 284.016 149.695 285.189 151.115C281.194 153.507 275.966 154.532 270.799 153.875C270.818 146.172 270.799 138.469 270.818 130.713C274.118 129.924 277.437 126.243 277.437 117.068C277.457 112.388 277.457 107.682 277.457 103.002C275.231 102.345 273.025 101.714 270.818 101.056C270.818 93.0376 270.799 84.9399 270.838 76.7634C272.269 77.2892 273.701 77.815 275.132 78.3671C275.609 81.8639 278.63 87.1484 281.075 88.2263C281.313 87.6742 281.591 87.1221 281.87 86.57C278.57 84.493 276.384 80.0235 276.384 76.6582C276.364 75.1333 276.364 73.6085 276.344 72.1099C283.042 74.7916 289.741 77.447 296.399 80.1286C296.419 82.2319 296.419 84.3352 296.399 86.4385C298.268 87.1221 300.116 87.8582 301.985 88.5418C302.004 95.7981 302.004 103.054 302.004 110.258ZM322 161C315.838 160.08 309.697 159.186 303.575 158.345C303.555 134.604 303.555 110.626 303.575 86.4122C309.697 88.8047 315.838 91.1183 322 93.4056C322 116.016 322 138.547 322 161Z" fill="#FFCF0A"/>
</g>
<defs>
<clipPath id="clip0_30_907">
<rect width="375" height="211" fill="white"/>
</clipPath>
</defs>
</svg>
